<svg id="Capa_1" enable-background="new 0 0 512 512" height="512" viewBox="0 0 512 512" width="512" xmlns="http://www.w3.org/2000/svg"><g><g fill="#fce3a0"><path d="m480.681 174.024c-4.182-2.559-8.767-4.524-13.638-5.778-1.254-4.871-3.219-9.456-5.778-13.638-3.117-5.092-10.413-5.092-13.529 0-2.56 4.182-4.524 8.768-5.779 13.638-4.87 1.254-9.455 3.219-13.638 5.778-2.546 1.558-3.819 4.161-3.819 6.765 0 2.603 1.273 5.206 3.819 6.764 4.182 2.559 8.77 4.534 13.641 5.787 1.254 4.87 3.216 9.447 5.776 13.629 3.116 5.092 10.412 5.092 13.529 0 2.559-4.182 4.522-8.759 5.776-13.629 4.87-1.254 9.458-3.228 13.64-5.787 5.092-3.116 5.092-10.413 0-13.529z"/><path d="m89.544 461.608c-4.879-2.986-10.229-5.279-15.911-6.741-1.463-5.683-3.756-11.032-6.742-15.911-3.636-5.941-12.149-5.941-15.784 0-2.986 4.879-5.279 10.229-6.742 15.911-5.682 1.463-11.031 3.755-15.911 6.741-2.969 1.818-4.454 4.855-4.454 7.892s1.485 6.074 4.456 7.892c4.879 2.986 10.231 5.289 15.914 6.752 1.463 5.682 3.753 11.021 6.739 15.9 3.635 5.941 12.148 5.941 15.784 0 2.986-4.879 5.275-10.218 6.739-15.9 5.682-1.463 11.035-3.766 15.913-6.752 5.94-3.636 5.94-12.148-.001-15.784z"/></g><g><path d="m417.597 353.038 7.393-7.393c8.032-8.032 8.032-21.054 0-29.086-3.857-3.857-6.024-7.877-6.024-13.332v-38.73c0-5.791-2.413-11.343-4.092-16.885l-158.874-.004-158.873-.003c-1.679 5.544-4.093 11.097-4.093 16.891v38.73c0 5.455-2.167 9.475-6.024 13.332-8.032 8.032-8.032 21.054 0 29.086l7.393 7.393c11.64 11.639 11.64 30.511 0 42.151s-11.64 30.511 0 42.15c17.388 17.388 40.972 27.157 65.562 27.157h96.035 96.035c24.591 0 48.174-9.769 65.563-27.157 11.639-11.64 11.639-30.511 0-42.15-11.64-11.64-11.64-30.511-.001-42.15z" fill="#ffb39d"/><path d="m97.127 247.605c-1.679 5.544-4.093 11.097-4.093 16.891v38.73c0 5.455-2.167 9.475-6.024 13.332-8.032 8.032-8.032 21.054 0 29.086l7.393 7.393c11.64 11.639 11.64 30.511 0 42.151s-11.64 30.511 0 42.15c17.388 17.388 40.972 27.157 65.562 27.157h96.035v-216.887z" fill="#ff8f71"/></g><g><path d="m316.437 443.8c-11.149-14-26.969-24.063-45.052-27.753-4.974-1.015-10.119-1.548-15.385-1.548-24.412 0-46.22 11.449-60.436 29.3-10.669 13.397-17.063 30.398-17.063 48.88v11.82h77.499 77.5v-11.82c0-18.481-6.395-35.482-17.063-48.879z" fill="#c9aaf2"/><path d="m271.384 416.048c-4.974-1.015-10.118-1.548-15.385-1.548-24.412 0-46.22 11.449-60.436 29.3-10.669 13.397-17.063 30.398-17.063 48.88v11.82h30.795v-11.82c0-37.736 26.725-69.406 62.089-76.632z" fill="#b28ae4"/><path d="m308.851 429.535-14.976-5.043h-37.875-37.875l-14.976 5.043c-9.292 3.129-11.716 15.142-4.365 21.629l29.981 26.458v3.263c0 5.038 2.707 9.687 7.087 12.174l20.148 11.441 20.148-11.44c4.381-2.488 7.087-7.137 7.087-12.174v-3.263l29.981-26.458c7.352-6.489 4.928-18.501-4.365-21.63z" fill="#b28ae4"/><path d="m256 392.632-37.875 31.859c4.223 20.009 18.581 36.364 37.875 43.141 19.294-6.778 33.652-23.132 37.875-43.141z" fill="#ffcbbe"/></g><g><path d="m401 249.5h-290c-19.33 0-35 15.67-35 35s15.67 35 35 35h290c19.33 0 35-15.67 35-35s-15.67-35-35-35z" fill="#ffcbbe"/><path d="m280.148 141.513c-7.854-1.317-15.919-2.013-24.148-2.013-8.228 0-16.293.696-24.147 2.013-68.586 11.498-120.853 71.134-120.853 142.987s52.267 131.489 120.853 142.987c7.854 1.317 15.919 2.013 24.147 2.013s16.293-.696 24.148-2.013c68.585-11.499 120.852-71.134 120.852-142.987s-52.267-131.488-120.852-142.987z" fill="#ffddcf"/><path d="m159.099 284.702c0-71.98 52.361-131.723 121.049-143.189-7.854-1.317-15.919-2.013-24.148-2.013-8.228 0-16.293.696-24.147 2.013-68.586 11.498-120.853 71.134-120.853 142.987s52.267 131.489 120.853 142.987c7.854 1.317 15.919 2.013 24.147 2.013s16.293-.696 24.148-2.013c-68.688-11.466-121.049-70.807-121.049-142.785z" fill="#ffcbbe"/></g><g><g><g><ellipse cx="176" cy="331.5" fill="#ff8e9e" rx="29" ry="23"/></g><g><ellipse cx="336" cy="331.5" fill="#ff8e9e" rx="29" ry="23"/></g></g></g><g><path d="m414.875 247.61c-8.483-28.005-23.318-52.974-42.696-72.982-21.722-22.43-49.154-38.622-79.75-45.875-11.727-2.78-23.916-4.252-36.429-4.252-45.167 0-86.145 19.099-116.192 50.131-19.371 20.006-34.2 44.975-42.681 72.974l18.126 1.895c-2.777 11.205-4.253 22.925-4.253 34.999 16.469-.012 32.692-2.346 48.275-6.869 16.781-4.871 32.819-12.28 47.612-22.093 19.802-13.134 36.447-29.91 49.113-49.343 12.666 19.433 29.312 36.209 49.113 49.343 28.53 18.924 61.684 28.936 95.887 28.961 0-12.074-1.476-23.794-4.253-34.998z" fill="#ffb39d"/><path d="m261.187 146.013c11.496-3.565 22.076-9.518 31.242-17.26-11.727-2.78-23.916-4.252-36.429-4.252-45.167 0-86.145 19.099-116.192 50.131-19.371 20.006-34.2 44.975-42.681 72.974l18.126 1.895c-2.777 11.205-4.253 22.925-4.253 34.999 16.469-.012 32.692-2.346 48.275-6.869 2.977-62.087 44.929-113.947 101.912-131.618z" fill="#ff8f71"/></g><g><path d="m180.644 22.653c-16.894-5.861-34.446-10.09-52.436-12.567-12.377-1.705-24.961-2.586-37.682-2.586-10.646 0-15.833 12.999-8.113 20.328l47.198 44.807c7.543 7.161 10.839 17.719 8.709 27.9l-20.138 96.271c28.162-20.725 59.55-36.596 93.748-47.351 4.098-1.289 8.205-2.49 12.32-3.612 27.641-7.537 55.655-11.32 83.774-11.32 4.742 0 9.486.12 14.231.334-16.132-25.417-36.057-47.637-58.795-66.097-24.694-20.049-52.708-35.663-82.816-46.107z" fill="#c9aaf2"/><path d="m177.109 57.629c-8.54-10.68-6.972-26.225 3.535-34.976-16.894-5.861-34.446-10.09-52.436-12.567-12.392-1.707-24.99-2.588-37.727-2.586-10.622.002-15.771 13.016-8.068 20.328l47.198 44.807c7.543 7.161 10.839 17.719 8.709 27.9l-20.138 96.271c28.162-20.725 59.55-36.596 93.748-47.351 4.098-1.289 8.205-2.49 12.32-3.612-10.186-32.116-26.185-62.007-47.141-88.214z" fill="#b28ae4"/><path d="m263.461 68.761c-23.19 2.637-46.06 7.387-68.385 14.16-1.238.376-2.482.732-3.717 1.12-18.648 5.865-36.703 13.093-54.107 21.6l-19.07 91.166c28.162-20.725 59.55-36.596 93.748-47.351 4.098-1.289 8.205-2.49 12.32-3.612 27.641-7.537 55.655-11.32 83.774-11.32 4.742 0 9.486.12 14.231.334-16.132-25.419-36.054-47.636-58.794-66.097z" fill="#b0ebd8"/><path d="m191.359 84.041c-18.648 5.865-36.703 13.093-54.107 21.6l-19.07 91.166c28.162-20.725 59.55-36.596 93.748-47.351 4.098-1.289 8.205-2.49 12.32-3.612-7.041-22.199-16.862-43.332-29.175-62.923-1.237.376-2.481.732-3.716 1.12z" fill="#5fd9b3"/><path d="m77.118 242.073c7.32 3.817 16.276 2.553 22.208-3.188 33.084-32.018 73.406-56.137 118.605-70.351 45.116-14.188 91.896-17.5 137.272-10.233 8.134 1.303 16.182-2.781 19.992-10.086 6.098-11.693-1.142-25.871-14.177-27.872-10.942-1.679-22.005-2.817-33.158-3.474-39.964-2.353-81.041 2.145-121.5 14.868-40.58 12.761-77.004 32.55-108.493 57.458-8.763 6.932-17.155 14.241-25.139 21.92-9.494 9.132-7.289 24.867 4.39 30.958z" fill="#b28ae4"/></g><g><path d="m467.662 210.885c2.227-3.64 4.037-7.5 5.403-11.521 4.017-1.366 7.88-3.18 11.53-5.414 9.883-6.048 9.862-20.289-.001-26.323h.001c-3.642-2.229-7.505-4.04-11.528-5.406-1.366-4.024-3.177-7.888-5.405-11.529-6.047-9.879-20.289-9.864-26.322-.001-2.229 3.641-4.04 7.504-5.407 11.53-4.021 1.366-7.885 3.176-11.528 5.406-9.882 6.047-9.862 20.288 0 26.323 3.65 2.234 7.515 4.048 11.531 5.414 1.365 4.021 3.176 7.882 5.403 11.52 6.046 9.884 20.287 9.861 26.323.001zm-7.884-19.416c-1.052 4.081-2.704 7.979-4.911 11.585-.194.319-.538.319-.734-.001-2.207-3.605-3.859-7.503-4.91-11.583-.681-2.646-2.747-4.712-5.393-5.394-4.071-1.048-7.973-2.704-11.596-4.921-.319-.195-.319-.54-.001-.734 10.258-6.276 15.273-3.651 16.987-10.306 1.052-4.086 2.704-7.986 4.913-11.594.197-.319.541-.316.733.001 2.208 3.607 3.861 7.508 4.912 11.593 1.702 6.609 6.715 4.018 16.986 10.305h.001c.319.195.318.539-.001.734-3.623 2.218-7.524 3.874-11.595 4.921-2.644.683-4.709 2.749-5.391 5.394z"/><path d="m93.459 455.211c-4.345-2.66-8.967-4.799-13.784-6.385-1.586-4.817-3.726-9.438-6.386-13.785-6.566-10.731-22.024-10.71-28.578 0-2.659 4.345-4.799 8.966-6.386 13.785-4.817 1.586-9.438 3.726-13.784 6.385-10.733 6.566-10.711 22.025-.001 28.578 4.358 2.667 8.98 4.81 13.789 6.396 1.585 4.813 3.724 9.431 6.382 13.775 3.081 5.034 8.422 8.04 14.289 8.04 5.866 0 11.208-3.006 14.29-8.041 2.658-4.344 4.797-8.962 6.382-13.775 4.808-1.585 9.43-3.729 13.788-6.396 10.731-6.567 10.709-22.023-.001-28.577zm-7.83 15.784c-4.333 2.652-8.999 4.633-13.868 5.886-2.646.681-4.712 2.747-5.394 5.393-1.256 4.879-3.232 9.542-5.873 13.856-.713 1.166-2.274 1.17-2.99 0-2.641-4.315-4.617-8.976-5.873-13.855-.681-2.646-2.748-4.712-5.394-5.393-4.869-1.253-9.535-3.234-13.869-5.887-1.168-.714-1.167-2.274 0-2.989 4.315-2.641 8.98-4.618 13.865-5.875 2.646-.681 4.712-2.747 5.394-5.392 1.259-4.888 3.236-9.554 5.877-13.868.713-1.166 2.274-1.169 2.989 0 2.642 4.316 4.619 8.982 5.876 13.867.681 2.646 2.748 4.712 5.394 5.394 4.885 1.257 9.55 3.234 13.864 5.875h.001c1.169.713 1.169 2.273.001 2.988z"/><g fill="#ffce71"><path d="m41.5 344h6c4.142 0 7.5-3.358 7.5-7.5s-3.358-7.5-7.5-7.5h-6c-4.142 0-7.5 3.358-7.5 7.5s3.358 7.5 7.5 7.5z"/><path d="m21 336.5c0-4.142-3.358-7.5-7.5-7.5h-6c-4.142 0-7.5 3.358-7.5 7.5s3.358 7.5 7.5 7.5h6c4.142 0 7.5-3.358 7.5-7.5z"/><path d="m27.5 343c-4.142 0-7.5 3.358-7.5 7.5v6c0 4.142 3.358 7.5 7.5 7.5s7.5-3.358 7.5-7.5v-6c0-4.142-3.358-7.5-7.5-7.5z"/><path d="m27.5 330c4.142 0 7.5-3.358 7.5-7.5v-6c0-4.142-3.358-7.5-7.5-7.5s-7.5 3.358-7.5 7.5v6c0 4.142 3.358 7.5 7.5 7.5z"/><path d="m504.5 393.917h-6c-4.142 0-7.5 3.358-7.5 7.5s3.358 7.5 7.5 7.5h6c4.142 0 7.5-3.358 7.5-7.5s-3.358-7.5-7.5-7.5z"/><path d="m470.5 393.917h-6c-4.142 0-7.5 3.358-7.5 7.5s3.358 7.5 7.5 7.5h6c4.142 0 7.5-3.358 7.5-7.5s-3.358-7.5-7.5-7.5z"/><path d="m484.5 407.917c-4.142 0-7.5 3.358-7.5 7.5v6c0 4.142 3.358 7.5 7.5 7.5s7.5-3.358 7.5-7.5v-6c0-4.142-3.358-7.5-7.5-7.5z"/><path d="m477 381.417v6c0 4.142 3.358 7.5 7.5 7.5s7.5-3.358 7.5-7.5v-6c0-4.142-3.358-7.5-7.5-7.5s-7.5 3.358-7.5 7.5z"/></g><path d="m422.912 248.099c-.293-.888-.59-1.775-.859-2.663-9.762-32.229-27.333-60.485-51.208-82.602 4.583-2.475 8.463-6.285 11-11.15 8.544-16.382-1.72-35.995-19.689-38.753-16.428-2.521-32.828-3.88-49.106-4.121-54.94-70.67-137.693-108.81-222.524-108.81-17.256 0-25.961 21.228-13.276 33.268l47.198 44.807c5.463 5.187 8.175 13.066 6.532 20.925l-4.083 19.516c-.848 4.054 1.751 8.029 5.806 8.877 4.07.848 8.031-1.763 8.877-5.806l2.253-10.771c37.172-17.736 76.604-29.234 117.317-34.209 11.833 9.842 22.82 20.699 32.791 32.44-56.437 2.228-110.915 18.023-159.384 46.114l.881-4.21c.848-4.055-1.751-8.029-5.806-8.877-4.053-.844-8.028 1.751-8.877 5.806l-3.809 18.208c-17.439 11.556-33.984 24.781-49.417 39.624-13.203 12.697-10.125 34.539 6.121 43.012 3.349 1.747 6.824 2.734 10.307 3.001-18.835 15.461-20.728 43.809-4.156 61.637-4.09 4.996-6.315 11.197-6.315 17.74 0 13.321 7.784 19.409 15.614 27.239 8.718 8.718 8.718 22.826 0 31.544-14.58 14.579-14.581 38.176 0 52.757 18.929 18.929 44.097 29.354 70.866 29.354h13.571c-1.674 6.744-2.537 13.664-2.537 20.684v11.82c0 4.142 3.358 7.5 7.5 7.5h155c4.143 0 7.5-3.358 7.5-7.5v-11.82c0-7.02-.863-13.94-2.535-20.684h13.57c9.474 0 18.888-1.341 27.981-3.985 3.977-1.157 6.264-5.319 5.106-9.296-1.156-3.978-5.316-6.262-9.296-5.107-7.731 2.249-15.736 3.389-23.792 3.389h-18.797c-2.282-5.001-5.031-9.776-8.233-14.258.359-7.018-2.865-13.976-9.053-18.026 41.62-17.865 73.754-53.733 86.534-97.753 4.769-.208 11.01-1.099 17.716-4.526 2.132 2.393 3.311 5.437 3.311 8.669 0 6.647-3.766 9.178-11.221 16.633-14.577 14.578-14.581 38.176 0 52.757 8.716 8.716 8.719 22.825.001 31.543-3.589 3.588-7.521 6.873-11.687 9.763-3.403 2.361-4.248 7.034-1.887 10.438 2.363 3.405 7.035 4.246 10.438 1.887 4.898-3.398 9.521-7.261 13.741-11.48 14.579-14.578 14.581-38.177.001-52.757-8.718-8.718-8.718-22.826 0-31.544 7.474-7.475 15.613-13.696 15.613-27.24 0-6.544-2.225-12.745-6.315-17.74 18.114-19.489 14.026-51.273-9.284-65.264zm-276.489-155.002c-.095-2.716-.481-5.401-1.152-8.008l8.004-6.053c3.304-2.499 3.957-7.202 1.458-10.506-2.5-3.304-7.204-3.957-10.506-1.458l-5.681 4.296c-2.415-3.113.313-.295-50.97-48.979-2.826-2.683-.942-7.389 2.95-7.389 54.933 0 108.747 16.826 153.985 48.805-33.817 5.44-66.688 15.261-98.088 29.292zm-65.837 142.326c-7.16-3.734-8.449-13.334-2.66-18.901 15.353-14.766 31.858-27.854 49.278-39.218.403-.218.786-.469 1.143-.755 68.8-44.474 150.561-61.217 231.533-48.792 7.973 1.224 12.386 9.853 8.665 16.99-2.332 4.469-7.22 6.941-12.155 6.148-.001 0-.001 0-.001 0-94.479-15.122-192.122 15.373-261.199 81.57-5.905 5.66-11.201 4.733-14.604 2.958zm25.309 22.052c-3.079 17.275-3.304 35.63.001 54.041-29.392-5.224-30.014-48.595-.001-54.041zm54.07 199.521c-22.763 0-44.163-8.864-60.259-24.96-8.718-8.718-8.718-22.826 0-31.544 14.579-14.58 14.582-38.176 0-52.757-7.389-7.389-11.221-9.978-11.221-16.633 0-3.232 1.178-6.276 3.312-8.671 6.698 3.42 12.941 4.313 17.714 4.524 12.777 44.025 44.912 79.893 86.534 97.758-6.166 4.036-9.412 10.983-9.052 18.026-3.201 4.482-5.95 9.258-8.232 14.258h-18.796zm26.035 40.004v-4.32c0-12.63 3.332-24.523 9.095-34.769l26.182 23.106c.191 4.207 1.354 10.896 7.226 15.983zm89.745-18.509c.07 4.143-.407 6.403-3.3 8.047l-16.445 9.337-16.444-9.337c-2.891-1.641-3.38-3.99-3.303-8.024.047-2.456-.397-4.635-2.525-6.515l-29.981-26.458c-3.022-2.667-2.033-7.609 1.795-8.898l7.486-2.521c6.556 18.936 21.282 33.841 40.485 40.587 1.609.565 3.362.565 4.972 0 19.205-6.747 33.931-21.65 40.486-40.587l7.486 2.521c3.818 1.286 4.823 6.226 1.796 8.898l-29.981 26.458c-2.068 1.826-2.57 3.965-2.527 6.492zm-46.261-43.806c8.614 1.517 17.473 2.315 26.516 2.315s17.902-.798 26.516-2.315c-5.415 11.219-14.756 20.108-26.516 24.926-11.76-4.818-21.103-13.708-26.516-24.926zm87.421 23.226c5.749 10.221 9.095 22.105 9.095 34.768v4.321h-42.505c5.854-5.081 7.024-11.771 7.223-15.977zm-60.905-35.911c-73.366 0-133.493-57.758-137.305-130.192 55.748-2.428 105.76-30.179 137.305-72.511 32.35 43.422 82.901 70.137 137.306 72.51-3.812 72.434-63.94 130.193-137.306 130.193zm135.222-162.543c1.049 5.718 1.73 11.524 2.054 17.339-53.309-2.473-101.855-29.992-130.993-74.697-2.955-4.534-9.61-4.536-12.566 0-29.139 44.705-77.684 72.225-130.992 74.698.323-5.782 1-11.561 2.04-17.261 1.613-8.829-5.061-17.173-14.217-17.165 64.787-61.506 155.635-90.217 243.957-77.199 25.13 19.778 43.938 46.321 54.769 77.215-9.108.132-15.64 8.413-14.052 17.07zm14.881 52.064c3.136-17.472 3.255-35.825.004-54.046 30.055 5.444 29.349 48.831-.004 54.046z"/><path d="m193.551 290c-4.142 0-7.5 3.358-7.5 7.5v12c0 4.142 3.358 7.5 7.5 7.5s7.5-3.358 7.5-7.5v-12c0-4.142-3.358-7.5-7.5-7.5z"/><path d="m310.949 297.5v12c0 4.142 3.358 7.5 7.5 7.5s7.5-3.358 7.5-7.5v-12c0-4.142-3.358-7.5-7.5-7.5s-7.5 3.358-7.5 7.5z"/><path d="m277.392 302.986c-3.122-2.722-7.86-2.397-10.582.726-5.727 6.571-15.899 6.564-21.621 0-2.721-3.123-7.46-3.448-10.582-.726-3.123 2.722-3.448 7.459-.726 10.582 11.705 13.43 32.543 13.416 44.236 0 2.723-3.123 2.398-7.86-.725-10.582z"/></g></g></svg>